<?xml version="1.0" standalone="no"?>
<!DOCTYPE svg PUBLIC "-//W3C//DTD SVG 20010904//EN"
 "http://www.w3.org/TR/2001/REC-SVG-20010904/DTD/svg10.dtd">
<svg version="1.0" xmlns="http://www.w3.org/2000/svg"
 width="1800.000000pt" height="1800.000000pt" viewBox="0 0 1800.000000 1800.000000"
 preserveAspectRatio="xMidYMid meet">
<metadata>
Created by potrace 1.14, written by Peter Selinger 2001-2017
</metadata>
<g transform="translate(0.000000,1800.000000) scale(0.100000,-0.100000)"
fill="#000000" stroke="none">
<path d="M8725 13718 c-186 -458 -461 -1137 -612 -1508 -327 -806 -560 -1378
-693 -1705 -54 -132 -157 -386 -230 -565 -73 -179 -181 -446 -242 -595 -188
-463 -302 -675 -498 -921 -304 -383 -688 -578 -1105 -561 -224 9 -408 61 -633
177 -116 60 -132 66 -127 47 4 -12 26 -74 49 -137 233 -628 240 -1303 22
-1845 -20 -49 -34 -90 -33 -92 2 -2 48 6 103 18 81 17 121 20 219 16 254 -11
409 -88 674 -337 638 -597 1485 -1040 2441 -1275 169 -41 511 -108 518 -100 6
6 7 6 -203 70 -432 133 -711 259 -1015 461 -450 297 -707 653 -776 1072 -24
144 -14 400 20 547 34 144 27 124 331 975 707 1976 912 2544 1478 4090 334
913 439 1194 451 1218 11 21 21 0 120 -235 120 -285 123 -291 1274 -3048 445
-1067 872 -2086 947 -2265 254 -601 278 -666 311 -850 80 -453 -13 -807 -300
-1142 -149 -175 -414 -369 -701 -515 -268 -136 -483 -219 -792 -306 -183 -51
-228 -73 -90 -43 40 8 146 32 237 51 860 188 1727 583 2318 1057 59 47 167
143 241 213 148 139 217 192 332 254 199 107 400 135 617 86 40 -9 75 -15 77
-13 2 2 -21 75 -50 163 -202 600 -177 1202 79 1867 14 37 22 69 18 72 -4 2
-61 -11 -127 -29 -388 -106 -749 -108 -1056 -5 -462 154 -817 514 -1081 1094
-33 72 -423 1040 -868 2151 -444 1111 -915 2286 -1045 2610 -131 325 -240 596
-242 603 -3 6 -9 12 -13 12 -4 0 -159 -375 -345 -832z"/>
<path d="M4470 5733 c0 -33 351 -416 566 -620 825 -778 1739 -1299 2689 -1533
230 -57 371 -82 610 -111 217 -26 886 -38 1155 -20 1154 77 2321 605 3325
1504 163 146 452 435 589 590 148 168 184 226 59 96 -114 -119 -395 -381 -530
-495 -532 -444 -1133 -798 -1753 -1029 -554 -207 -1229 -275 -1630 -164 -258
71 -449 234 -515 438 -12 38 -20 49 -26 40 -5 -8 -9 -21 -9 -29 0 -28 -67
-154 -106 -202 -291 -350 -1076 -406 -1914 -136 -407 131 -865 357 -1270 628
-403 270 -822 618 -1137 948 -57 59 -103 101 -103 95z"/>
</g>
</svg>
